# xmcd CD database file
#
# Track frame offsets:
#	150
#	25933
#	49586
#	65490
#	86269
#	108796
#	136570
#	156114
#	181021
#	204370
#
# Disc length: 2981 seconds
#
# Revision: 0
# Processed by: cddbd v1.4PL0 Copyright (c) Steve Scherf et al.
# Submitted via: CDex 1.50Beta7
#
DISCID=6d0ba30a
DTITLE=Smooth Jazz - Fever
DYEAR=2002
DGENRE=Jazz
TTITLE0=Fever
TTITLE1=After Midnight
TTITLE2=That's Cool
TTITLE3=Things We Never Say
TTITLE4=Soulmate
TTITLE5=Special Occasion
TTITLE6=Java
TTITLE7=Then I Knew
TTITLE8=Rendezvous
TTITLE9=Two Hearts
EXTD=YEAR: 2002
EXTT0=
EXTT1=
EXTT2=
EXTT3=
EXTT4=
EXTT5=
EXTT6=
EXTT7=
EXTT8=
EXTT9=
PLAYORDER=
